<?xml version="1.0" encoding="UTF-8"?>
<svg version="1.1" xmlns="http://www.w3.org/2000/svg" width="580" height="291">
<path d="M0 0 C9.14572976 7.04983336 9.14572976 7.04983336 11.14492798 11.61369324 C12.86401478 14.38049028 12.86401478 14.38049028 16.4781189 14.58540344 C17.94562129 14.59326827 19.41342173 14.57351591 20.88037109 14.5324707 C21.68232407 14.53010406 22.48427704 14.52773743 23.31053162 14.52529907 C25.05231171 14.51742703 26.79406874 14.49830787 28.53562546 14.46932411 C31.293311 14.42546518 34.04926811 14.4150504 36.80728149 14.41410828 C44.64739963 14.40532056 52.48662015 14.33539685 60.32617188 14.24389648 C65.12149741 14.19024713 69.91572497 14.17535235 74.71132278 14.18349266 C76.53825175 14.17836896 78.36520471 14.15790306 80.19178391 14.12178993 C94.51835847 13.84011304 94.51835847 13.84011304 98.21685791 16.73544312 C99.56769471 18.83363104 100.34615128 20.60169546 101 23 C102.55636998 27.21135406 103.05502588 28.0453436 107 30 C110.5828711 33.06165927 113.2737569 36.16797971 113.7484436 40.96586609 C113.77763493 42.42706699 113.77462624 43.88915722 113.74462891 45.3503418 C113.75193024 46.15448517 113.75923157 46.95862854 113.76675415 47.78713989 C113.78286928 50.42537894 113.75584213 53.06112369 113.7265625 55.69921875 C113.72552439 57.54051207 113.72656331 59.38180762 113.72958374 61.22309875 C113.72940475 65.0723298 113.70863654 68.92071906 113.67236328 72.76977539 C113.6268923 77.7030711 113.62592203 82.63514328 113.63939857 87.56859112 C113.64607957 91.36648945 113.63281737 95.16410872 113.61314011 98.96195412 C113.60544532 100.7812129 113.60313588 102.60050273 113.6063118 104.41977501 C113.60705349 106.95973348 113.5818125 109.49811963 113.54931641 112.0378418 C113.55427124 112.78857468 113.55922607 113.53930756 113.56433105 114.31278992 C113.49562609 117.67664764 113.22538652 119.67875521 111.27297974 122.46153259 C108.63819067 124.24489082 107.24213516 124.52254301 104.08300781 124.57763672 C103.10809387 124.60381073 102.13317993 124.62998474 101.12872314 124.6569519 C99.55680206 124.66820602 99.55680206 124.66820602 97.953125 124.6796875 C96.3253714 124.7116069 96.3253714 124.7116069 94.66473389 124.74417114 C92.3684331 124.78505355 90.07194519 124.81637715 87.77539062 124.83886719 C84.2765618 124.87472776 80.77948096 124.94266302 77.28125 125.015625 C75.04690477 125.05139007 72.81252899 125.08530405 70.578125 125.1171875 C69.53827454 125.13683563 68.49842407 125.15648376 67.42706299 125.17672729 C53.80234706 125.27690699 53.80234706 125.27690699 49 121.375 C47.5429747 117.91456492 47.44809977 114.65996993 48 111 C50.13888889 106.43055556 50.13888889 106.43055556 53 105 C54.78854665 104.85872229 56.58173483 104.77405411 58.375 104.71875 C59.44234375 104.68136719 60.5096875 104.64398438 61.609375 104.60546875 C63.86979167 104.53515625 66.13020833 104.46484375 68.390625 104.39453125 C69.45796875 104.35714844 70.5253125 104.31976563 71.625 104.28125 C72.60726562 104.25095703 73.58953125 104.22066406 74.6015625 104.18945312 C77.01286912 104.14997931 77.01286912 104.14997931 79 103 C79.02687279 101.18757948 79.04633715 99.37504767 79.0625 97.5625 C79.07410156 96.55316406 79.08570313 95.54382813 79.09765625 94.50390625 C79.28612676 92.05978933 79.28612676 92.05978933 78 91 C76.5119947 90.89836417 75.01929158 90.86432163 73.52783203 90.8581543 C72.57659454 90.85111984 71.62535706 90.84408539 70.64529419 90.83683777 C69.09224075 90.83059135 69.09224075 90.83059135 67.5078125 90.82421875 C65.33722986 90.80102271 63.16665691 90.77690546 60.99609375 90.75195312 C57.5570629 90.71679072 54.11838819 90.68747423 50.67919922 90.67407227 C47.37162665 90.65864294 44.06510837 90.61846388 40.7578125 90.57421875 C39.726492 90.57612717 38.69517151 90.57803558 37.63259888 90.58000183 C36.67505707 90.56351089 35.71751526 90.54701996 34.73095703 90.5300293 C33.88792023 90.52416306 33.04488342 90.51829681 32.17630005 90.51225281 C30 90 30 90 28.19815063 88.14105225 C26.45403092 85.02437282 27.04515546 83.40376734 28 80 C29.07623319 77.46553727 30.18627839 75.04241721 31.421875 72.58984375 C31.7637384 71.89991837 32.10560181 71.20999298 32.45782471 70.49916077 C33.18012202 69.04749185 33.90649876 67.59784632 34.63671875 66.15014648 C35.74521622 63.94700777 36.83419194 61.73495875 37.921875 59.52148438 C38.6290466 58.10618976 39.33734328 56.69145664 40.046875 55.27734375 C40.36791199 54.62201157 40.68894897 53.96667938 41.01971436 53.29148865 C43.6285536 48.17704388 46.39941816 43.86686061 52 42 C55.65923696 42 57.13896577 42.75756777 60 45 C62.7349182 47.95371166 64.31326596 51.49482557 66.03515625 55.09765625 C67.07461977 57.24013571 67.07461977 57.24013571 69 60 C71.90482522 52.13891932 72.67118268 46.01354805 70 38 C66.96240671 35.96108547 64.33614928 35.71467165 60.73168945 35.61425781 C59.6799202 35.58213196 58.62815094 35.5500061 57.54450989 35.51690674 C52.73681859 35.42753849 47.92966656 35.345874 43.12133789 35.29980469 C40.59068987 35.26671372 38.06022775 35.21216749 35.53051758 35.13574219 C31.86962664 35.02579835 28.21310384 34.98240866 24.55078125 34.953125 C23.42859695 34.90778625 22.30641266 34.86244751 21.15022278 34.81573486 C16.24955079 34.84190199 13.21053757 34.98334917 9.37191772 38.20715332 C6.97425885 40.84789266 6.97425885 40.84789266 4.94865417 43.59906006 C0.93129296 48.54885727 -5.03436996 50.58220478 -11.26171875 51.23828125 C-17.77074191 51.43743011 -22.3464777 50.18997627 -28 47 C-28.64066406 46.66097656 -29.28132813 46.32195312 -29.94140625 45.97265625 C-35.88644074 42.36454676 -38.68037436 36.4516485 -40.6171875 29.91796875 C-42.25444132 21.71499297 -40.37167187 13.73717992 -35.9375 6.75 C-26.36121995 -3.40316439 -12.49153279 -6.91495565 0 0 Z " fill="#388EBF" transform="translate(152,120)"/>
<path d="M0 0 C5.15267286 4.67752884 8.20372184 10.81611264 8.90625 17.73046875 C9.10904946 25.66350634 7.28245577 32.09797559 2.90625 38.73046875 C-2.5086452 44.29171247 -10.55771319 47.84974598 -18.28125 47.98046875 C-27.16541647 47.86357182 -33.56531795 44.7116071 -40.09375 38.73046875 C-40.7640625 37.72008545 -41.434375 36.70970215 -42.125 35.66870117 C-43.7427317 33.72329498 -44.66937295 32.84918897 -47.12458801 32.16233826 C-49.61590042 31.94052729 -52.04970433 31.89966857 -54.55078125 31.92578125 C-55.45374435 31.91207489 -56.35670746 31.89836853 -57.28703308 31.88424683 C-60.16061311 31.84696617 -63.03246259 31.85066027 -65.90625 31.85546875 C-67.85875095 31.83734058 -69.81122902 31.81653751 -71.76367188 31.79296875 C-76.54065432 31.74113593 -81.31650178 31.72603687 -86.09375 31.73046875 C-86.29676224 32.3512883 -86.49977448 32.97210785 -86.7089386 33.61174011 C-86.97683701 34.42459976 -87.24473541 35.23745941 -87.52075195 36.07495117 C-87.78563919 36.88139572 -88.05052643 37.68784027 -88.32344055 38.51872253 C-89.3636765 41.50549353 -90.78502171 44.15644854 -92.32421875 46.90625 C-93.35286622 49.01473772 -93.35286622 49.01473772 -93.09375 52.73046875 C-92.14532227 52.73981445 -91.19689453 52.74916016 -90.21972656 52.75878906 C-86.69310242 52.80286106 -83.16768797 52.86449658 -79.64160156 52.93798828 C-78.11697569 52.9661741 -76.59220434 52.98740064 -75.06738281 53.00146484 C-72.87229064 53.02292924 -70.67894289 53.06959044 -68.484375 53.12109375 C-67.16469727 53.14204102 -65.84501953 53.16298828 -64.48535156 53.18457031 C-60.64531278 53.80264739 -59.45446915 54.71924032 -57.09375 57.73046875 C-57.75375 59.71046875 -58.41375 61.69046875 -59.09375 63.73046875 C-59.75375 63.73046875 -60.41375 63.73046875 -61.09375 63.73046875 C-61.30515625 64.37757813 -61.5165625 65.0246875 -61.734375 65.69140625 C-63.62770538 69.92419659 -66.20458794 73.55445531 -68.84375 77.35546875 C-69.41432129 78.18433594 -69.98489258 79.01320313 -70.57275391 79.8671875 C-75.32637472 86.7279235 -80.26640942 93.44235229 -85.26025391 100.12939453 C-89.01204437 105.17747057 -92.48428723 110.26781884 -95.6640625 115.69921875 C-97.2769815 117.99079766 -98.67802587 119.30971819 -101.09375 120.73046875 C-103.34765625 121.09375 -103.34765625 121.09375 -105.65625 121.04296875 C-106.42066406 121.03910156 -107.18507813 121.03523437 -107.97265625 121.03125 C-110.09375 120.73046875 -110.09375 120.73046875 -113.09375 118.73046875 C-114.09686657 111.14835345 -111.42757296 104.33137193 -109.15625 97.16796875 C-108.41338085 94.79309692 -107.67495836 92.4168287 -106.94140625 90.0390625 C-106.4465271 88.47369751 -106.4465271 88.47369751 -105.94165039 86.87670898 C-105.0334939 83.50688098 -104.52223883 80.19129821 -104.09375 76.73046875 C-105.18840576 76.72635986 -106.28306152 76.72225098 -107.41088867 76.71801758 C-111.48346645 76.69619823 -115.55508191 76.64188044 -119.62719727 76.57788086 C-121.38751991 76.55472511 -123.14798061 76.54031081 -124.90844727 76.53491211 C-127.44374379 76.52560433 -129.97687628 76.48457827 -132.51171875 76.4375 C-133.68700386 76.44339897 -133.68700386 76.44339897 -134.8860321 76.44941711 C-139.03463866 76.33935152 -140.67181845 76.05596672 -144.06762695 73.4362793 C-148.40493328 67.64397107 -147.2798701 60.7917201 -147.27905273 53.83105469 C-147.28124272 51.73742446 -147.29943002 49.64431862 -147.31835938 47.55078125 C-147.3212931 46.21484554 -147.32327804 44.87890735 -147.32421875 43.54296875 C-147.32832764 42.33253906 -147.33243652 41.12210938 -147.33666992 39.875 C-147.10638313 36.8940011 -146.66055019 35.23300222 -145.09375 32.73046875 C-144.43375 32.73046875 -143.77375 32.73046875 -143.09375 32.73046875 C-142.84625 32.11171875 -142.59875 31.49296875 -142.34375 30.85546875 C-141.09375 28.73046875 -141.09375 28.73046875 -139.09375 27.79296875 C-136.26985694 26.29277556 -136.17991961 24.73340827 -135.09375 21.73046875 C-130.73787811 13.37459686 -130.73787811 13.37459686 -129.09375 11.73046875 C-126.44723657 11.60537041 -123.82552781 11.5444088 -121.17749023 11.52514648 C-119.93369095 11.51029709 -119.93369095 11.51029709 -118.6647644 11.49514771 C-115.91065371 11.46343755 -113.15652574 11.43873787 -110.40234375 11.4140625 C-108.49804727 11.39350118 -106.59375545 11.37250493 -104.68946838 11.35108948 C-99.66712194 11.2957839 -94.64473373 11.24641219 -89.62231445 11.19824219 C-84.50142685 11.14808896 -79.3806002 11.09237072 -74.25976562 11.03710938 C-64.2044791 10.92942408 -54.14913975 10.8280023 -44.09375 10.73046875 C-43.79952148 9.94945801 -43.50529297 9.16844727 -43.20214844 8.36376953 C-40.91894736 2.93940681 -36.03647607 -1.02949333 -31.15625 -4.14453125 C-30.145625 -4.51578125 -29.135 -4.88703125 -28.09375 -5.26953125 C-27.45050781 -5.50671875 -26.80726563 -5.74390625 -26.14453125 -5.98828125 C-16.89255163 -8.77882448 -7.5918562 -5.57011189 0 0 Z " fill="#3F975F" transform="translate(470.09375,123.26953125)"/>
<path d="M0 0 C-0.02525757 1.40693115 -0.02525757 1.40693115 -0.05102539 2.84228516 C-0.09239668 6.34389927 -0.0932355 9.84077137 -0.06713867 13.34228516 C-0.06406795 14.85340584 -0.0768629 16.3646493 -0.10620117 17.87548828 C-0.54795862 26.67363552 -0.54795862 26.67363552 2.96923828 34.32714844 C6.20057993 36.51804391 9.31082919 37.7702764 13 39 C15.53890747 37.83260536 15.53890747 37.83260536 18.125 36.125 C19.01445312 35.57070312 19.90390625 35.01640625 20.8203125 34.4453125 C22.88822056 33.17796369 22.88822056 33.17796369 24 32 C24.15971977 29.62661361 24.2592433 27.27881728 24.31640625 24.90234375 C24.33718735 24.19348526 24.35796844 23.48462677 24.37937927 22.75428772 C24.44494598 20.48212695 24.5037923 18.20984736 24.5625 15.9375 C24.60567849 14.40037817 24.64929255 12.8632685 24.69335938 11.32617188 C24.80063449 7.5509041 24.90188137 3.7755164 25 0 C29.32358461 -1.23026094 31.05352149 -0.40965263 34.92578125 1.73046875 C44.19186267 7.40179919 49.77309855 16.37676406 53.2109375 26.6015625 C55.06884662 34.6034483 54.50466308 41.61875041 51 49 C50.69449219 49.76828125 50.38898438 50.5365625 50.07421875 51.328125 C47.09190157 58.22541127 42.7787702 62.55583374 37.328125 67.5546875 C33.29315465 71.79276038 33.86664663 76.17960821 33.91821289 81.79443359 C33.92127945 82.57541916 33.92434601 83.35640472 33.92750549 84.16105652 C33.9346497 85.85418094 33.94403403 87.54729707 33.95540047 89.24039841 C33.97281159 91.92236633 33.98309683 94.60427449 33.99131775 97.2862854 C34.01575163 104.91096655 34.05130436 112.5355672 34.09594727 120.16015625 C34.12277144 124.82668146 34.13978763 129.49316012 34.15081596 134.15974808 C34.15701366 135.93551986 34.16700383 137.71128269 34.18089485 139.48701096 C34.20017218 141.97365938 34.2070157 144.46006411 34.21118164 146.94677734 C34.21994324 147.67633133 34.22870483 148.40588531 34.23773193 149.157547 C34.22175233 157.53857162 31.33595593 162.83605091 26 169 C20.78234504 173.73229171 16.72053129 174.37436857 9.8515625 174.265625 C4.46281787 173.76365975 0.80758736 172.08536805 -2.75390625 167.9765625 C-7.68675786 161.0111383 -9.31932187 154.36129664 -9.17944336 145.84912109 C-9.17491653 145.06609116 -9.17038971 144.28306122 -9.16572571 143.4763031 C-9.15482557 141.78811646 -9.13936271 140.09995423 -9.11976433 138.41184616 C-9.08944518 135.73829152 -9.07274941 133.06495732 -9.05970764 130.39126587 C-9.02007364 122.7938784 -8.95476569 115.19675911 -8.88354492 107.59960938 C-8.84082117 102.94261377 -8.81273418 98.28570678 -8.79324532 93.62855911 C-8.78268821 91.85751568 -8.7663021 90.08649692 -8.74394035 88.3155632 C-8.71272601 85.84095329 -8.6999704 83.36686644 -8.69116211 80.89208984 C-8.67027023 79.79943565 -8.67027023 79.79943565 -8.6489563 78.68470764 C-8.65931223 72.99076266 -10.13337069 69.88410711 -14.0859375 65.89453125 C-14.84132813 65.20746094 -15.59671875 64.52039063 -16.375 63.8125 C-20.94549699 59.36091025 -23.58444098 54.8594283 -26 49 C-26.35964844 48.23816406 -26.71929687 47.47632813 -27.08984375 46.69140625 C-29.98700062 38.12427715 -29.14387058 28.42405297 -25.32958984 20.3371582 C-21.62301585 13.1712828 -18.09912587 6.84726542 -10.875 2.75 C-10.00617188 2.24984375 -9.13734375 1.7496875 -8.2421875 1.234375 C-4.82220133 -0.64840484 -3.75901002 -1.127703 0 0 Z M6 146.0625 C3.68640641 148.89917338 3.68640641 148.89917338 3.875 152.5625 C5.21759747 156.66488116 6.17874172 158.00630003 10 160 C13.5241557 159.93923869 15.91616966 159.72255356 18.875 157.75 C20.39898926 155.37935004 20.86819981 153.83370413 21 151 C19.42042918 146.70200702 19.42042918 146.70200702 16 144 C11.64522829 143.50700698 9.65865977 143.54717141 6 146.0625 Z " fill="#EE733B" transform="translate(282,84)"/>
<path d="M0 0 C2.67045719 1.3802363 4.8326087 3.00326872 7.18359375 4.875 C10.56252979 7.42443302 14.10442873 9.41158004 17.8125 11.4375 C25.01768905 15.41574248 32.02015751 19.63545476 39 24 C41.35179307 25.46219041 43.70672846 26.91923097 46.0625 28.375 C47.10535156 29.02210937 48.14820313 29.66921875 49.22265625 30.3359375 C51.42563147 31.65586358 53.70299243 32.85149622 56 34 C56 26.08 56 18.16 56 10 C60.39292892 7.80353554 66.34581449 8.81415067 71.23071289 8.81469727 C73.42549052 8.81251196 75.61976454 8.79435494 77.81445312 8.77539062 C79.20833161 8.77245635 80.60221249 8.77047178 81.99609375 8.76953125 C83.26638428 8.76542236 84.5366748 8.76131348 85.84545898 8.75708008 C89 9 89 9 92 11 C92.34489441 12.95320129 92.34489441 12.95320129 92.30541992 15.37036133 C92.29939255 16.2750264 92.29336517 17.17969147 92.28715515 18.11177063 C92.26844864 19.09195663 92.24974213 20.07214264 92.23046875 21.08203125 C92.22836912 23.14908758 92.22776506 25.21614587 92.22851562 27.28320312 C92.21402411 30.5491967 92.18747962 33.81374507 92.1340332 37.0793457 C92.08902873 40.22703949 92.09373595 43.37160667 92.10546875 46.51953125 C92.07664108 47.49364456 92.04781342 48.46775787 92.01811218 49.47138977 C92.0472139 52.20449758 92.1481773 54.40071422 93 57 C94.90177655 58.80648437 96.68411259 59.88560292 99.04341125 61.01835632 C102.89933213 62.95291736 104.67922269 66.03766807 106 70 C106.13225339 72.52722545 106.21206775 75.02614764 106.23828125 77.5546875 C106.246353 78.29324982 106.25442474 79.03181213 106.26274109 79.79275513 C106.27655873 81.35448881 106.28729125 82.91625239 106.29516602 84.47802734 C106.30669676 86.07251858 106.32716613 87.66697088 106.35668945 89.26123047 C106.39940091 91.56764905 106.41553795 93.87292237 106.42578125 96.1796875 C106.44328934 96.88817841 106.46079742 97.59666931 106.47883606 98.32662964 C106.46308369 101.93763586 106.07790811 103.87851889 104.10986328 106.94726562 C102 109 102 109 99.81640625 109.6640625 C99.07261719 109.65117188 98.32882812 109.63828125 97.5625 109.625 C96.45068359 109.64433594 96.45068359 109.64433594 95.31640625 109.6640625 C92.70199142 108.91456752 90.84642895 107.95592751 88.98852539 105.93945312 C86.62887648 101.30990239 87.38694932 95.50587079 87.4375 90.4375 C87.45409011 87.998754 87.4535288 85.5598147 87.43359375 83.12109375 C87.44447021 82.0427124 87.45534668 80.96433105 87.46655273 79.85327148 C86.88455123 76.29395619 85.77340565 75.22925249 83 73 C80.7058357 71.51701652 78.42426333 70.11399211 76.0625 68.75 C74.70661648 67.9525277 73.35115454 67.15433824 71.99609375 66.35546875 C70.98264893 65.76064697 70.98264893 65.76064697 69.94873047 65.15380859 C67.14937323 63.49635905 64.38776938 61.7800855 61.625 60.0625 C57.97070375 57.80010071 54.29998608 55.5809121 50.5859375 53.41796875 C49.82587402 52.97509521 49.06581055 52.53222168 48.28271484 52.07592773 C46.79821508 51.21364771 45.31166243 50.35488898 43.82275391 49.50024414 C39.94169491 47.24703569 36.48959473 44.83788773 33 42 C31.4207601 41.06092099 29.81468429 40.16581082 28.1875 39.3125 C23.41919302 36.7608114 18.6633736 34.1919251 13.9375 31.5625 C13.25155762 31.1814209 12.56561523 30.8003418 11.85888672 30.40771484 C7.00919427 27.67213982 2.50240725 24.65286251 -1.88671875 21.21484375 C-4.62062216 19.6432283 -5.88100648 19.45876289 -9 20 C-11.40137674 21.40104684 -13.57053099 22.8169704 -15.8125 24.4375 C-21.17294416 28.16708417 -26.5936172 31.59597423 -32.3125 34.75 C-33.32256104 35.3083252 -33.32256104 35.3083252 -34.35302734 35.87792969 C-35.64745586 36.59255878 -36.94220092 37.30661491 -38.23730469 38.02001953 C-43.70024012 41.05716951 -49.01182885 44.30261274 -54.171875 47.828125 C-58.09991179 50.4569036 -62.1145489 52.83452602 -66.24511719 55.12915039 C-68.95776329 56.64359935 -71.63554132 58.21131712 -74.31640625 59.78125 C-78.06628679 61.95922729 -81.84557646 63.89207055 -85.77734375 65.71875 C-93.81421841 69.68923797 -93.81421841 69.68923797 -100 76 C-101.94106529 82.93222087 -101.47119327 89.85705173 -100.99609375 96.96484375 C-100.79778773 100.95272948 -100.69120235 103.53799097 -103.15234375 106.77734375 C-106.16732885 109.13060373 -107.36394205 109.77452218 -111.125 109.625 C-111.97320312 109.61726563 -112.82140625 109.60953125 -113.6953125 109.6015625 C-116 109 -116 109 -117.61914062 107.46801758 C-119.552675 104.01220092 -119.42961952 100.76703064 -119.3984375 96.91015625 C-119.40130768 96.12861679 -119.40417786 95.34707733 -119.40713501 94.54185486 C-119.40917286 92.89190953 -119.40366249 91.24193988 -119.39111328 89.59204102 C-119.37507631 87.07447896 -119.39095927 84.55852742 -119.41015625 82.04101562 C-119.40817334 80.43489231 -119.40432869 78.82876999 -119.3984375 77.22265625 C-119.40451019 76.47355484 -119.41058289 75.72445343 -119.4168396 74.95265198 C-119.35726518 70.49576869 -118.82859842 67.51093197 -116 64 C-115.34 64 -114.68 64 -114 64 C-113.67 63.01 -113.34 62.02 -113 61 C-110.97878072 59.61359801 -109.00472781 58.3954775 -106.875 57.19921875 C-106.25407471 56.84036087 -105.63314941 56.48150299 -104.9934082 56.11177063 C-103.00039782 54.96176385 -101.00067778 53.82410648 -99 52.6875 C-96.39333312 51.19573281 -93.78966472 49.69882384 -91.1875 48.19921875 C-90.55380493 47.83488739 -89.92010986 47.47055603 -89.26721191 47.09518433 C-85.10438109 44.68609703 -81.10076049 42.119085 -77.1328125 39.40551758 C-72.20066765 36.15524767 -66.96963494 33.3804073 -61.81640625 30.5 C-56.81242766 27.67837331 -51.99800332 24.70839609 -47.24609375 21.48193359 C-43.35244535 18.9129721 -39.30093164 16.62224172 -35.25 14.3125 C-33.60919293 13.37141112 -31.96856263 12.43001396 -30.328125 11.48828125 C-29.19600586 10.84173584 -29.19600586 10.84173584 -28.04101562 10.18212891 C-26.35844593 9.20760708 -24.69916089 8.19299796 -23.046875 7.16796875 C-21 6 -21 6 -19 6 C-19 5.34 -19 4.68 -19 4 C-12.96430045 -0.38959967 -7.38096894 -1.39047931 0 0 Z " fill="#233548" transform="translate(301,15)"/>
<path d="M0 0 C5.79132756 4.26678935 11.34861728 9.07803803 12.671875 16.48828125 C13.1695939 23.81049201 13.35926279 30.03535262 9.671875 36.48828125 C9.15625 37.49890625 8.640625 38.50953125 8.109375 39.55078125 C4.106114 44.375224 -1.39738823 47.51136899 -7.328125 49.48828125 C-18.33851795 50.2715103 -25.67690737 49.18932494 -34.078125 41.98828125 C-35.328125 40.48828125 -35.328125 40.48828125 -35.328125 37.48828125 C-36.813125 36.99328125 -36.813125 36.99328125 -38.328125 36.48828125 C-38.90433594 35.48474609 -38.90433594 35.48474609 -39.4921875 34.4609375 C-41.32211763 32.07476223 -41.32211763 32.07476223 -45.1640625 31.984375 C-46.67672003 31.94589512 -48.18997865 31.92705925 -49.703125 31.92578125 C-59.07937156 31.86977978 -59.07937156 31.86977978 -63.328125 28.48828125 C-65.81198559 24.76249036 -65.7085462 22.90116723 -65.328125 18.48828125 C-64.11912018 15.76802041 -63.17152635 14.08362338 -60.734375 12.36328125 C-57.89990675 11.33256552 -55.33212491 11.32284918 -52.33764648 11.3137207 C-43.88360072 11.38386553 -43.88360072 11.38386553 -36.765625 7.30078125 C-35.60586287 6.04264644 -34.45972293 4.77180668 -33.328125 3.48828125 C-23.15259962 -5.29605902 -11.5453499 -7.49672888 0 0 Z " fill="#F59A3A" transform="translate(465.328125,213.51171875)"/>
<path d="M0 0 C4.9342859 3.6032984 9.68015848 7.68015848 14 12 C17.73811016 12.13620644 21.47030306 12.24796874 25.2109375 12.25390625 C29.53864743 12.38782561 31.47202017 12.59665354 35.01171875 15.30078125 C37.67202944 18.91232288 38.46099386 21.54662536 38 26 C35.13868613 31.62043796 35.13868613 31.62043796 31 33 C29.03251767 32.98145828 27.06503174 32.96197027 25.09765625 32.93432617 C17.74432335 32.83745204 17.74432335 32.83745204 11.41796875 36.078125 C10.14142664 37.81484624 8.92247064 39.59541778 7.765625 41.4140625 C4.76178037 45.81349866 0.15516312 48.95473124 -4.91015625 50.6328125 C-15.17937265 52.43712342 -22.7558415 50.52972207 -31.25 44.8125 C-36.65844926 39.28113144 -39.71861388 33.08009868 -40.25 25.375 C-40.11623475 17.40853629 -37.73915744 10.61162061 -32 5 C-22.75902382 -3.09314967 -11.22627179 -6.06320579 0 0 Z " fill="#EF663D" transform="translate(151,212)"/>
<path d="M0 0 C2.65795898 -0.38818359 2.65795898 -0.38818359 5.99609375 -0.3984375 C7.19427734 -0.40230469 8.39246094 -0.40617188 9.62695312 -0.41015625 C11.51317383 -0.39275391 11.51317383 -0.39275391 13.4375 -0.375 C15.31791992 -0.39240234 15.31791992 -0.39240234 17.23632812 -0.41015625 C18.43580078 -0.40628906 19.63527344 -0.40242187 20.87109375 -0.3984375 C21.97380615 -0.39505371 23.07651855 -0.39166992 24.21264648 -0.38818359 C27 0 27 0 28.92041016 1.2722168 C30 3 30 3 29.97631836 4.89916992 C29.69220093 5.96035034 29.69220093 5.96035034 29.40234375 7.04296875 C29.08692627 8.23672119 29.08692627 8.23672119 28.76513672 9.45458984 C27.46512608 13.77938593 26.06499269 18.05384236 24.5625 22.3125 C24.26279297 23.19228516 23.96308594 24.07207031 23.65429688 24.97851562 C23.35716797 25.82736328 23.06003906 26.67621094 22.75390625 27.55078125 C22.48908447 28.31044189 22.2242627 29.07010254 21.95141602 29.8527832 C20.88539968 32.25863737 19.78643439 34.06294467 18 36 C15.1924541 36.40837031 12.86022379 36.56011224 10.0625 36.5 C8.98838867 36.52320313 8.98838867 36.52320313 7.89257812 36.546875 C4.61349421 36.52256298 2.46827644 36.34337511 -0.20776367 34.38110352 C-2.57988104 31.22959 -2.48834629 29.28974483 -2.4609375 25.37109375 C-2.45707031 24.08912109 -2.45320313 22.80714844 -2.44921875 21.48632812 C-2.43681152 20.82189697 -2.4244043 20.15746582 -2.41162109 19.47290039 C-2.37505234 17.44040894 -2.37060232 15.40973965 -2.37109375 13.37695312 C-2.28090721 3.42136081 -2.28090721 3.42136081 0 0 Z " fill="#429760" transform="translate(325,208)"/>
<path d="M0 0 C0.66 0.33 1.32 0.66 2 1 C2 9.58 2 18.16 2 27 C2.33 27 2.66 27 3 27 C3.05063235 34.20822151 3.08570496 41.4163973 3.10986328 48.62475586 C3.11993245 51.07789829 3.13358861 53.53102869 3.15087891 55.98413086 C3.17508679 59.50637783 3.18647388 63.02846639 3.1953125 66.55078125 C3.20563507 67.65086014 3.21595764 68.75093903 3.22659302 69.88435364 C3.22674408 70.90518539 3.22689514 71.92601715 3.22705078 72.9777832 C3.231492 73.87713089 3.23593323 74.77647858 3.24050903 75.70307922 C3 78 3 78 1 81 C0.01 81.495 0.01 81.495 -1 82 C-1.02312343 71.45618688 -1.04091509 60.91237975 -1.05181217 50.36854649 C-1.057041 45.47314626 -1.06413864 40.57776332 -1.07543945 35.68237305 C-1.08626834 30.96212022 -1.09227684 26.24188408 -1.09487724 21.5216198 C-1.09673149 19.71661046 -1.10035209 17.91160208 -1.10573006 16.10659981 C-1.11294052 13.58740356 -1.11399094 11.0682771 -1.11352539 8.54907227 C-1.11712067 7.79525772 -1.12071594 7.04144318 -1.12442017 6.26478577 C-1.11405216 1.11405216 -1.11405216 1.11405216 0 0 Z " fill="#EE7730" transform="translate(313,156)"/>
<path d="M0 0 C0.99 0 1.98 0 3 0 C2.99476318 0.56518845 2.98952637 1.13037689 2.98413086 1.71269226 C2.93739891 7.60199015 2.94647671 13.48933744 2.98779297 19.37866211 C2.99589794 21.57559597 2.98982918 23.77263011 2.96923828 25.96948242 C2.94207858 29.13072892 2.96609111 32.28810967 3 35.44921875 C2.9805835 36.42960617 2.96116699 37.40999359 2.94116211 38.42008972 C2.99917612 41.17065481 3.12178357 43.39046004 4 46 C5.9281891 47.76122726 7.71673423 48.80919996 10.08984375 49.8865509 C12.4256787 51.24813235 13.01358422 52.52853382 14 55 C10.76171886 54.34048737 8.19450407 53.16784772 5.3125 51.5625 C4.52488281 51.13066406 3.73726563 50.69882813 2.92578125 50.25390625 C1 49 1 49 0 47 C-0.08977728 45.48835608 -0.11757433 43.97279821 -0.11352539 42.45849609 C-0.11344986 41.51767181 -0.11337433 40.57684753 -0.11329651 39.60751343 C-0.10555458 38.08089584 -0.10555458 38.08089584 -0.09765625 36.5234375 C-0.0962413 35.48305328 -0.09482635 34.44266907 -0.09336853 33.37075806 C-0.08775866 30.03880979 -0.07520447 26.70692805 -0.0625 23.375 C-0.05748627 21.11979264 -0.05292314 18.86458422 -0.04882812 16.609375 C-0.03778603 11.07289386 -0.02103827 5.53645168 0 0 Z " fill="#16253B" transform="translate(390,26)"/>
<path d="M0 0 C24.09 0 48.18 0 73 0 C73 0.33 73 0.66 73 1 C63.76 1.33 54.52 1.66 45 2 C45 2.33 45 2.66 45 3 C30.15 3 15.3 3 0 3 C0 2.01 0 1.02 0 0 Z " fill="#439D55" transform="translate(341,135)"/>
<path d="M0 0 C0.99 0.66 1.98 1.32 3 2 C2.23816406 2.61875 2.23816406 2.61875 1.4609375 3.25 C-2.94865751 6.94943551 -6.49889617 10.66041401 -9.7734375 15.3984375 C-11 17 -11 17 -13 18 C-15.91699274 18.08698228 -18.80982548 18.11551923 -21.7265625 18.09765625 C-23.02078629 18.09553383 -23.02078629 18.09553383 -24.34115601 18.09336853 C-27.1024723 18.08776188 -29.86370812 18.07520827 -32.625 18.0625 C-34.4947905 18.05748586 -36.36458226 18.0529228 -38.234375 18.04882812 C-42.82294777 18.03779029 -47.41146023 18.0205212 -52 18 C-52.33 17.34 -52.66 16.68 -53 16 C-51.77651855 15.96241577 -51.77651855 15.96241577 -50.52832031 15.92407227 C-47.44181001 15.82775532 -44.35540568 15.72861328 -41.26904297 15.62768555 C-39.30052279 15.56413115 -37.33190243 15.50370404 -35.36328125 15.44335938 C-27.54841345 15.18550841 -19.78424974 14.74148709 -12 14 C-11.70867187 13.22043945 -11.41734375 12.44087891 -11.1171875 11.63769531 C-9.84328697 8.62999835 -8.34239254 7.00627516 -6 4.75 C-4.948125 3.72132812 -4.948125 3.72132812 -3.875 2.671875 C-2 1 -2 1 0 0 Z " fill="#349053" transform="translate(438,120)"/>
<path d="M0 0 C0.48500977 0.81041748 0.97001953 1.62083496 1.46972656 2.45581055 C4.3794204 5.38150713 6.04579634 5.61154631 10.09442139 5.71894836 C10.88310608 5.71501572 11.67179077 5.71108307 12.484375 5.70703125 C13.29996887 5.72215256 14.11556274 5.73727386 14.95587158 5.75285339 C17.55419513 5.79575215 20.15135751 5.80456998 22.75 5.8125 C24.51435383 5.83564278 26.27868002 5.86100767 28.04296875 5.88867188 C32.3620819 5.95154517 36.68046959 5.98386346 41 6 C40.67 6.99 40.34 7.98 40 9 C34.80390542 9.07421905 29.60812017 9.12863446 24.41162109 9.16479492 C22.64431381 9.17987102 20.87704386 9.20033522 19.10986328 9.22631836 C16.56794005 9.26275402 14.02651194 9.27973794 11.484375 9.29296875 C10.69569031 9.30845261 9.90700562 9.32393646 9.09442139 9.33988953 C5.79998434 9.34089767 3.4180011 9.22546209 0.48925781 7.64575195 C-1 6 -1 6 -1.3125 3.375 C-1 1 -1 1 0 0 Z " fill="#2F8D4E" transform="translate(326,190)"/>
<path d="M0 0 C0.66 0 1.32 0 2 0 C2.07426356 4.62642926 2.12865492 9.25251009 2.16479492 13.87939453 C2.17986364 15.45269822 2.20032245 17.02596002 2.22631836 18.59912109 C2.26278738 20.86306096 2.27974508 23.12644457 2.29296875 25.390625 C2.30845261 26.09181458 2.32393646 26.79300415 2.33988953 27.51544189 C2.3413055 31.64215024 1.91367297 34.00231108 -1 37 C-2.69985638 31.54095997 -2.18596551 25.70640596 -2.18530273 20.0456543 C-2.18749631 17.9410399 -2.20569398 15.83694414 -2.22460938 13.73242188 C-2.22754236 12.39323095 -2.22952779 11.05403755 -2.23046875 9.71484375 C-2.23457764 8.49917725 -2.23868652 7.28351074 -2.24291992 6.03100586 C-2 3 -2 3 0 0 Z " fill="#69A981" transform="translate(325,157)"/>
<path d="M0 0 C1.42387839 0.71498167 2.83882087 1.44776901 4.25 2.1875 C5.43335938 2.79658203 5.43335938 2.79658203 6.640625 3.41796875 C9.50256829 5.33698702 11.0839701 7.12695204 13 10 C13.45410156 13.13793945 13.45410156 13.13793945 13.390625 16.61328125 C13.37773437 17.86044922 13.36484375 19.10761719 13.3515625 20.39257812 C13.31804687 21.68615234 13.28453125 22.97972656 13.25 24.3125 C13.22292969 26.28186523 13.22292969 26.28186523 13.1953125 28.29101562 C13.14822786 31.52808488 13.08247042 34.76367053 13 38 C12.01 38 11.02 38 10 38 C9.9906543 37.20303711 9.98130859 36.40607422 9.97167969 35.58496094 C9.91798502 31.97267825 9.83433392 28.36169179 9.75 24.75 C9.73582031 23.49574219 9.72164063 22.24148437 9.70703125 20.94921875 C9.67480469 19.74394531 9.64257812 18.53867188 9.609375 17.296875 C9.58842773 16.18666992 9.56748047 15.07646484 9.54589844 13.93261719 C8.88252882 10.36893389 7.79891589 9.23016593 5 7 C4.0925 6.505 3.185 6.01 2.25 5.5 C1.5075 5.005 0.765 4.51 0 4 C0 2.68 0 1.36 0 0 Z " fill="#11303F" transform="translate(379,81)"/>
<path d="M0 0 C0.66 0.33 1.32 0.66 2 1 C2 11.56 2 22.12 2 33 C0.515 33.495 0.515 33.495 -1 34 C-1.02468857 29.4793335 -1.04285449 24.9587061 -1.05493164 20.43798828 C-1.05996552 18.89956987 -1.06679308 17.36115625 -1.07543945 15.82275391 C-1.08754639 13.61359474 -1.09323769 11.40449874 -1.09765625 9.1953125 C-1.10281754 8.50567413 -1.10797882 7.81603577 -1.11329651 7.10549927 C-1.11387171 2.22774341 -1.11387171 2.22774341 0 0 Z " fill="#EE6B2D" transform="translate(280,83)"/>
<path d="M0 0 C4.43737712 -0.08690253 8.87453634 -0.14035926 13.3125 -0.1875 C14.57513672 -0.21263672 15.83777344 -0.23777344 17.13867188 -0.26367188 C18.34716797 -0.27333984 19.55566406 -0.28300781 20.80078125 -0.29296875 C21.91622314 -0.3086792 23.03166504 -0.32438965 24.1809082 -0.34057617 C27 0 27 0 28.88745117 1.51831055 C29.43816284 2.25174683 29.43816284 2.25174683 30 3 C29.01 3.66 28.02 4.32 27 5 C27 4.34 27 3.68 27 3 C13.635 3.495 13.635 3.495 0 4 C0 2.68 0 1.36 0 0 Z " fill="#369752" transform="translate(325,208)"/>
<path d="M0 0 C0.75 1.75 0.75 1.75 1 4 C-0.44140625 6.12109375 -0.44140625 6.12109375 -3 8 C-5.91072148 8.51453276 -8.74171991 8.42305889 -11.6875 8.3125 C-12.8640918 8.29799805 -12.8640918 8.29799805 -14.06445312 8.28320312 C-19.83143877 8.16856123 -19.83143877 8.16856123 -21 7 C-21.680625 7.99 -21.680625 7.99 -22.375 9 C-22.91125 9.66 -23.4475 10.32 -24 11 C-24.66 11 -25.32 11 -26 11 C-26.33 10.01 -26.66 9.02 -27 8 C-21.9380127 4.21355315 -17.28372093 4.56576746 -11.23828125 4.56054688 C-6.23252494 4.43208056 -3.69985486 3.69251387 0 0 Z " fill="#F58E2B" transform="translate(429,220)"/>
<path d="M0 0 C0.33 0.99 0.66 1.98 1 3 C-0.32 3.33 -1.64 3.66 -3 4 C-3 4.66 -3 5.32 -3 6 C-7.10412741 6.16764279 -11.20830797 6.3339474 -15.3125 6.5 C-17.06336914 6.57154297 -17.06336914 6.57154297 -18.84960938 6.64453125 C-19.96787109 6.68964844 -21.08613281 6.73476562 -22.23828125 6.78125 C-23.26993408 6.82314453 -24.30158691 6.86503906 -25.36450195 6.90820312 C-27.24211189 6.97360204 -29.12125145 7 -31 7 C-30.34 5.68 -29.68 4.36 -29 3 C-28.26362305 3.01571045 -27.52724609 3.0314209 -26.76855469 3.04760742 C-23.42911471 3.11000472 -20.08979745 3.14900618 -16.75 3.1875 C-15.01169922 3.22520508 -15.01169922 3.22520508 -13.23828125 3.26367188 C-12.12324219 3.27333984 -11.00820312 3.28300781 -9.859375 3.29296875 C-8.31975098 3.31653442 -8.31975098 3.31653442 -6.74902344 3.34057617 C-3.63780439 2.95512763 -2.2937883 2.08024524 0 0 Z " fill="#2985B9" transform="translate(234,222)"/>
<path d="M0 0 C1.32 0.33 2.64 0.66 4 1 C3.67 1.66 3.34 2.32 3 3 C-24.06 3 -51.12 3 -79 3 C-79 2.67 -79 2.34 -79 2 C-52.93 2 -26.86 2 0 2 C0 1.34 0 0.68 0 0 Z " fill="#2586BC" transform="translate(245,135)"/>
<path d="M0 0 C0.66 0.33 1.32 0.66 2 1 C-1.79699819 5.3319344 -6.551254 8.13956903 -11.375 11.1875 C-12.21289062 11.73341797 -13.05078125 12.27933594 -13.9140625 12.84179688 C-18.25355942 15.5949211 -21.73124613 17.69966387 -27 18 C-27 17.34 -27 16.68 -27 16 C-25.05981445 14.62719727 -25.05981445 14.62719727 -22.36328125 13.06640625 C-21.39326172 12.49986328 -20.42324219 11.93332031 -19.42382812 11.34960938 C-17.8837207 10.46499023 -17.8837207 10.46499023 -16.3125 9.5625 C-15.30509766 8.97662109 -14.29769531 8.39074219 -13.25976562 7.78710938 C-11.3708941 6.68869629 -9.48020322 5.59340189 -7.5871582 4.50219727 C-5.79563696 3.46197549 -4.03208746 2.37262502 -2.29370117 1.24584961 C-1.53677979 0.83471924 -0.7798584 0.42358887 0 0 Z " fill="#192B3D" transform="translate(228,70)"/>
<path d="M0 0 C0.99 0.495 0.99 0.495 2 1 C2 9.58 2 18.16 2 27 C2.33 27 2.66 27 3 27 C3 34.59 3 42.18 3 50 C2.34 49.67 1.68 49.34 1 49 C-0.86341349 38.68439919 -0.11764593 27.63297089 -0.0625 17.1875 C-0.05747056 15.51237114 -0.05291023 13.83724081 -0.04882812 12.16210938 C-0.03794708 8.10803561 -0.02076371 4.05403469 0 0 Z " fill="#EE572B" transform="translate(313,156)"/>
<path d="M0 0 C0.33 0.99 0.66 1.98 1 3 C-0.12019531 3.62648437 -1.24039062 4.25296875 -2.39453125 4.8984375 C-3.86722287 5.72389523 -5.33987718 6.54941954 -6.8125 7.375 C-7.55048828 7.7875 -8.28847656 8.2 -9.04882812 8.625 C-9.76103516 9.02460937 -10.47324219 9.42421875 -11.20703125 9.8359375 C-11.8616333 10.20251465 -12.51623535 10.5690918 -13.19067383 10.94677734 C-14.83176306 11.90206799 -16.4200344 12.9466896 -18 14 C-20.6875 14.125 -20.6875 14.125 -23 14 C-22.34 13.67 -21.68 13.34 -21 13 C-21 12.34 -21 11.68 -21 11 C-19.87980469 10.37351562 -18.75960938 9.74703125 -17.60546875 9.1015625 C-16.13277713 8.27610477 -14.66012282 7.45058046 -13.1875 6.625 C-12.44951172 6.2125 -11.71152344 5.8 -10.95117188 5.375 C-10.23896484 4.97539063 -9.52675781 4.57578125 -8.79296875 4.1640625 C-8.1383667 3.79748535 -7.48376465 3.4309082 -6.80932617 3.05322266 C-1.56420955 0 -1.56420955 0 0 0 Z " fill="#1A2D45" transform="translate(276,42)"/>
<path d="M0 0 C0.33 0.66 0.66 1.32 1 2 C-2.23404201 4.06782686 -5.48934698 6.09944282 -8.75 8.125 C-10.13058594 9.00865234 -10.13058594 9.00865234 -11.5390625 9.91015625 C-12.42851562 10.45800781 -13.31796875 11.00585938 -14.234375 11.5703125 C-15.45979004 12.34012451 -15.45979004 12.34012451 -16.70996094 13.12548828 C-19 14 -19 14 -21.29785156 13.15185547 C-21.85956055 12.77174316 -22.42126953 12.39163086 -23 12 C-20.67164951 10.55387606 -18.33783563 9.11814894 -16 7.6875 C-15.02740234 7.08131836 -15.02740234 7.08131836 -14.03515625 6.46289062 C-9.49214227 3.69659993 -5.03004364 1.73469139 0 0 Z " fill="#1B2E40" transform="translate(241,46)"/>
<path d="M0 0 C0.33 0.99 0.66 1.98 1 3 C1.66 3 2.32 3 3 3 C3 9.93 3 16.86 3 24 C2.34 24 1.68 24 1 24 C0.67 25.32 0.34 26.64 0 28 C0 18.76 0 9.52 0 0 Z " fill="#EE5229" transform="translate(313,207)"/>
<path d="M0 0 C0.99 0.33 1.98 0.66 3 1 C2.3566152 2.313702 1.71021785 3.62592898 1.0625 4.9375 C0.70285156 5.66839844 0.34320313 6.39929688 -0.02734375 7.15234375 C-1 9 -1 9 -2 10 C-4.69654854 10.07319621 -7.36691458 10.09242537 -10.0625 10.0625 C-11.20041992 10.05573242 -11.20041992 10.05573242 -12.36132812 10.04882812 C-14.24091871 10.0370068 -16.12046899 10.01907078 -18 10 C-14.77358652 7.10919454 -12.71742847 6.7049691 -8.4375 6.6875 C-5.56093175 6.5891405 -5.56093175 6.5891405 -3 6 C-0.6844676 3.12870432 -0.6844676 3.12870432 0 0 Z " fill="#399256" transform="translate(345,234)"/>
<path d="M0 0 C2.06591092 1.07681448 4.12759178 2.1617466 6.1875 3.25 C7.33605469 3.85328125 8.48460937 4.4565625 9.66796875 5.078125 C12.71734251 6.83696661 15.32486306 8.72285895 18 11 C17.67 11.99 17.34 12.98 17 14 C11.06 10.37 5.12 6.74 -1 3 C-0.67 2.01 -0.34 1.02 0 0 Z " fill="#142D3C" transform="translate(326,31)"/>
<path d="M0 0 C0.5775 0.226875 1.155 0.45375 1.75 0.6875 C-0.51457162 3.03917053 -2.83977777 5.19945261 -5.375 7.25 C-8.35989523 9.55341249 -8.35989523 9.55341249 -10.25 12.6875 C-11.24 12.3575 -12.23 12.0275 -13.25 11.6875 C-11.30649676 6.91708296 -5.66073117 -0.78621266 0 0 Z " fill="#E46B38" transform="translate(274.25,86.3125)"/>
<path d="M0 0 C1 4 1 4 -0.87109375 7.234375 C-1.71378586 8.41547102 -2.56982364 9.58713477 -3.4375 10.75 C-3.87126953 11.35199219 -4.30503906 11.95398438 -4.75195312 12.57421875 C-5.82335193 14.05769401 -6.91022455 15.52997152 -8 17 C-9.32 16.67 -10.64 16.34 -12 16 C-8.04 10.72 -4.08 5.44 0 0 Z " fill="#358F57" transform="translate(387,215)"/>
<path d="M0 0 C3.87236814 0.68612348 6.87258235 2.47549772 10.25 4.4375 C11.32765625 5.05496094 12.4053125 5.67242187 13.515625 6.30859375 C14.74539063 7.14583984 14.74539063 7.14583984 16 8 C16 8.66 16 9.32 16 10 C11.30868408 9.49785035 8.4403566 8.31803532 4.625 5.5625 C3.75101562 4.94503906 2.87703125 4.32757813 1.9765625 3.69140625 C1.32429688 3.13324219 0.67203125 2.57507812 0 2 C0 1.34 0 0.68 0 0 Z " fill="#18263C" transform="translate(337,57)"/>
<path d="M0 0 C0.99 0.33 1.98 0.66 3 1 C-0.56320845 6.09210286 -4.04741286 10.22660027 -9 14 C-9.66 13.34 -10.32 12.68 -11 12 C-10.29875 11.319375 -9.5975 10.63875 -8.875 9.9375 C-5.72065663 6.79219487 -2.86065696 3.4111614 0 0 Z " fill="#EB702D" transform="translate(328,137)"/>
<path d="M0 0 C6.26418531 1.48362284 10.91513505 5.24162156 16 9 C14.390625 9.703125 14.390625 9.703125 12 10 C8.984375 8.671875 8.984375 8.671875 5.75 6.75 C4.67234375 6.12609375 3.5946875 5.5021875 2.484375 4.859375 C1.66453125 4.24578125 0.8446875 3.6321875 0 3 C0 2.01 0 1.02 0 0 Z " fill="#1E2E44" transform="translate(316,44)"/>
<path d="M0 0 C0.99 0.33 1.98 0.66 3 1 C3 5.62 3 10.24 3 15 C2.01 15.33 1.02 15.66 0 16 C0 10.72 0 5.44 0 0 Z " fill="#E76633" transform="translate(254,112)"/>
<path d="M0 0 C0.33 0.66 0.66 1.32 1 2 C-0.28172417 4.38665879 -1.60287377 6.68520414 -3 9 C-3.6802367 10.32646156 -4.35492261 11.65608877 -5 13 C-5.99 12.67 -6.98 12.34 -8 12 C-6.74337944 7.49710965 -5.16038089 4.4566666 -2 1 C-1.34 0.67 -0.68 0.34 0 0 Z " fill="#2D83B8" transform="translate(121,123)"/>
<path d="M0 0 C0 0.99 0 1.98 0 3 C-2.5546875 4.859375 -2.5546875 4.859375 -5.875 6.75 C-6.96554687 7.38421875 -8.05609375 8.0184375 -9.1796875 8.671875 C-10.11039062 9.11015625 -11.04109375 9.5484375 -12 10 C-12.66 9.67 -13.32 9.34 -14 9 C-13.34 8.01 -12.68 7.02 -12 6 C-11.34 6 -10.68 6 -10 6 C-10 5.34 -10 4.68 -10 4 C-3.375 0 -3.375 0 0 0 Z " fill="#152337" transform="translate(292,15)"/>
<path d="M0 0 C0.33 1.32 0.66 2.64 1 4 C-0.07543783 4.98783194 -1.16073217 5.96493943 -2.25 6.9375 C-3.15492188 7.75541016 -3.15492188 7.75541016 -4.078125 8.58984375 C-6.12034484 10.0883018 -7.48171019 10.75545533 -10 11 C-10.66 10.34 -11.32 9.68 -12 9 C-11.38511719 8.60167969 -10.77023438 8.20335937 -10.13671875 7.79296875 C-9.32847656 7.26316406 -8.52023438 6.73335937 -7.6875 6.1875 C-6.88699219 5.66542969 -6.08648437 5.14335937 -5.26171875 4.60546875 C-3.2762598 3.19610151 -1.6508148 1.77903343 0 0 Z " fill="#2D89BA" transform="translate(158,158)"/>
<path d="M0 0 C4.44505449 2.22252725 6.57842762 4.6757636 9 9 C9.75 11.875 9.75 11.875 10 14 C7.5 12.1875 7.5 12.1875 5 10 C5 9.01 5 8.02 5 7 C4.01 6.67 3.02 6.34 2 6 C0.3125 3.4375 0.3125 3.4375 -1 1 C-0.67 0.67 -0.34 0.34 0 0 Z " fill="#F08C2E" transform="translate(425,244)"/>
<path d="M0 0 C0.66 0.99 1.32 1.98 2 3 C-0.28431738 5.35800504 -2.0081024 6.88720897 -5.3359375 7.265625 C-7.56920205 7.251535 -9.77382441 7.17460201 -12 7 C-12.66 5.35 -13.32 3.7 -14 2 C-13.195625 2.495 -13.195625 2.495 -12.375 3 C-9.32806078 4.28292178 -7.27967299 4.40995912 -4 4 C-1.62280307 2.12498069 -1.62280307 2.12498069 0 0 Z " fill="#358F54" transform="translate(372,237)"/>
<path d="M0 0 C0 0.99 0 1.98 0 3 C-1.7664657 4.0076952 -3.53833823 5.00591714 -5.3125 6 C-6.79169922 6.8353125 -6.79169922 6.8353125 -8.30078125 7.6875 C-11 9 -11 9 -14 9 C-10.58268355 4.07906431 -6.29241474 0 0 0 Z " fill="#182A3E" transform="translate(274,26)"/>
<path d="M0 0 C2.09440189 3.40340307 2.25797575 6.04437178 2 10 C1.67 10.66 1.34 11.32 1 12 C0.01 12 -0.98 12 -2 12 C-2.05395478 10.37536158 -2.09277195 8.75021459 -2.125 7.125 C-2.14820313 6.22007812 -2.17140625 5.31515625 -2.1953125 4.3828125 C-2 2 -2 2 0 0 Z " fill="#59A675" transform="translate(477,137)"/>
<path d="M0 0 C0.33 1.32 0.66 2.64 1 4 C-3.455 6.97 -3.455 6.97 -8 10 C-8.66 9.67 -9.32 9.34 -10 9 C-8.59070303 5.52867905 -7.09394917 4.11906726 -3.875 2.25 C-3.15054688 1.82203125 -2.42609375 1.3940625 -1.6796875 0.953125 C-1.12539062 0.63859375 -0.57109375 0.3240625 0 0 Z " fill="#192739" transform="translate(196,71)"/>
<path d="M0 0 C4.21073233 1.50383297 5.83237117 4.20664956 8 8 C8 8.99 8 9.98 8 11 C7.01 11 6.02 11 5 11 C3.39453125 8.8125 3.39453125 8.8125 1.8125 6 C1.28269531 5.071875 0.75289063 4.14375 0.20703125 3.1875 C-0.19128906 2.465625 -0.58960938 1.74375 -1 1 C-0.67 0.67 -0.34 0.34 0 0 Z " fill="#319755" transform="translate(468,123)"/>
<path d="M0 0 C0.33 0.66 0.66 1.32 1 2 C0 4 0 4 -2.50390625 4.8515625 C-4.01791016 5.23441406 -4.01791016 5.23441406 -5.5625 5.625 C-6.57441406 5.88539063 -7.58632813 6.14578125 -8.62890625 6.4140625 C-9.41136719 6.60742188 -10.19382812 6.80078125 -11 7 C-9.99382318 4.32423308 -9.45785454 3.2214892 -6.8359375 1.953125 C-6.02382813 1.72109375 -5.21171875 1.4890625 -4.375 1.25 C-3.55773437 1.00765625 -2.74046875 0.7653125 -1.8984375 0.515625 C-1.27195312 0.34546875 -0.64546875 0.1753125 0 0 Z " fill="#F9992D" transform="translate(447,209)"/>
<path d="M0 0 C0.99 0.66 1.98 1.32 3 2 C1.92456217 2.98783194 0.83926783 3.96493943 -0.25 4.9375 C-1.15492187 5.75541016 -1.15492187 5.75541016 -2.078125 6.58984375 C-4.08467305 8.06212799 -5.57002449 8.57529189 -8 9 C-5.68462045 5.27885429 -3.71420527 2.38770339 0 0 Z " fill="#F2622F" transform="translate(122,215)"/>
<path d="M0 0 C4.51650194 0.53135317 7.42058156 2.23408575 11 5 C11.33 5.99 11.66 6.98 12 8 C7.39571066 6.68448876 3.81679612 4.90803514 0 2 C0 1.34 0 0.68 0 0 Z " fill="#162736" transform="translate(312,24)"/>
<path d="M0 0 C2.97 1.65 5.94 3.3 9 5 C9 5.99 9 6.98 9 8 C5.508067 7.35334574 2.84610101 6.13457576 0 4 C0 2.68 0 1.36 0 0 Z " fill="#14263A" transform="translate(379,81)"/>
<path d="M0 0 C0.99 0.33 1.98 0.66 3 1 C0.03 4.96 0.03 4.96 -3 9 C-3.99 8.34 -4.98 7.68 -6 7 C-4.02 4.69 -2.04 2.38 0 0 Z " fill="#2B8F49" transform="translate(473,156)"/>
<path d="M0 0 C0.33 0 0.66 0 1 0 C1 5.28 1 10.56 1 16 C0.01 15.67 -0.98 15.34 -2 15 C-1.85973717 12.68715544 -1.71264442 10.37472409 -1.5625 8.0625 C-1.48128906 6.77472656 -1.40007812 5.48695312 -1.31640625 4.16015625 C-1 1 -1 1 0 0 Z " fill="#162A41" transform="translate(358,35)"/>
<path d="M0 0 C5.61 0 11.22 0 17 0 C17 0.33 17 0.66 17 1 C16.28714844 1.04898437 15.57429688 1.09796875 14.83984375 1.1484375 C9.29491509 1.58128523 4.27913551 2.24028816 -1 4 C-0.67 2.68 -0.34 1.36 0 0 Z " fill="#183043" transform="translate(359,24)"/>
<path d="M0 0 C1.72526042 1.07421875 3.45052083 2.1484375 5.17578125 3.22265625 C5.17578125 4.21265625 5.17578125 5.20265625 5.17578125 6.22265625 C1.68907291 5.11324905 -1.59906112 3.95927959 -4.82421875 2.22265625 C-4.82421875 1.56265625 -4.82421875 0.90265625 -4.82421875 0.22265625 C-1.82421875 -0.77734375 -1.82421875 -0.77734375 0 0 Z " fill="#152438" transform="translate(301.82421875,15.77734375)"/>
<path d="M0 0 C0.66 0 1.32 0 2 0 C1.07506212 3.78383679 0.60628829 5.56693694 -2.625 7.875 C-3.40875 8.24625 -4.1925 8.6175 -5 9 C-5.33 8.34 -5.66 7.68 -6 7 C-5.04882866 5.8274869 -4.08882991 4.66212985 -3.125 3.5 C-2.59132812 2.8503125 -2.05765625 2.200625 -1.5078125 1.53125 C-0.76144531 0.77328125 -0.76144531 0.77328125 0 0 Z " fill="#EF724B" transform="translate(187,236)"/>
<path d="M0 0 C-1.450954 3.82524236 -3.38181932 5.19090966 -7 7 C-7.66 7 -8.32 7 -9 7 C-9.33 6.01 -9.66 5.02 -10 4 C-8.71086513 3.32845067 -7.41859796 2.66291141 -6.125 2 C-5.40570313 1.62875 -4.68640625 1.2575 -3.9453125 0.875 C-2 0 -2 0 0 0 Z " fill="#162940" transform="translate(251,58)"/>
<path d="M0 0 C0.33 1.32 0.66 2.64 1 4 C-4.41538462 8.06153846 -4.41538462 8.06153846 -7.375 7.75 C-7.91125 7.5025 -8.4475 7.255 -9 7 C-8.071875 6.401875 -7.14375 5.80375 -6.1875 5.1875 C-3.79745282 3.54727155 -1.91529747 2.1281083 0 0 Z " fill="#F48A2F" transform="translate(471,251)"/>
<path d="M0 0 C3.14737182 0.69941596 6.02588876 1.76078698 9 3 C8.67 3.99 8.34 4.98 8 6 C4.62537285 5.45276317 2.91765 4.9451 0 3 C0 2.01 0 1.02 0 0 Z " fill="#F06439" transform="translate(281,251)"/>
<path d="M0 0 C0.99 0.99 1.98 1.98 3 3 C2.1875 5.9375 2.1875 5.9375 1 9 C0.01 9.33 -0.98 9.66 -2 10 C-2.33 9.34 -2.66 8.68 -3 8 C-2.67 7.34 -2.34 6.68 -2 6 C-1.34 6 -0.68 6 0 6 C-0.66 4.35 -1.32 2.7 -2 1 C-1.34 0.67 -0.68 0.34 0 0 Z " fill="#2F8D49" transform="translate(410,178)"/>
<path d="M0 0 C0.66 0.33 1.32 0.66 2 1 C1.34 3.97 0.68 6.94 0 10 C-0.99 10 -1.98 10 -3 10 C-2.25 3.375 -2.25 3.375 0 0 Z " fill="#344352" transform="translate(185,79)"/>
<path d="M0 0 C2.97 1.98 5.94 3.96 9 6 C5 7 5 7 3.078125 6.22265625 C1.38541667 5.1484375 -0.30729167 4.07421875 -2 3 C-1.34 2.01 -0.68 1.02 0 0 Z " fill="#202E41" transform="translate(358,68)"/>
<path d="M0 0 C0.66 0.33 1.32 0.66 2 1 C0.02 5.455 0.02 5.455 -2 10 C-4 6 -4 6 -3.25 3.3125 C-2 1 -2 1 0 0 Z " fill="#348C53" transform="translate(367,208)"/>
<path d="M0 0 C0.99 0 1.98 0 3 0 C1.125 5.75 1.125 5.75 0 8 C-1.32 7.67 -2.64 7.34 -4 7 C-2.68 4.69 -1.36 2.38 0 0 Z " fill="#3287B3" transform="translate(196,169)"/>
<path d="M0 0 C0.66 0 1.32 0 2 0 C2.79953138 3.28696233 3.09658936 4.71023192 2 8 C0.68 8.33 -0.64 8.66 -2 9 C-1.34 6.03 -0.68 3.06 0 0 Z " fill="#4A9D67" transform="translate(362,216)"/>
<path d="M0 0 C1.32 0.66 2.64 1.32 4 2 C1.69 3.65 -0.62 5.3 -3 7 C-3.66 6.34 -4.32 5.68 -5 5 C-3.35 3.35 -1.7 1.7 0 0 Z " fill="#278AC5" transform="translate(201,163)"/>
<path d="M0 0 C0.86625 0.639375 1.7325 1.27875 2.625 1.9375 C5.9598812 3.97548296 8.16047478 4.63433093 12 5 C12 5.33 12 5.66 12 6 C7.545 6.495 7.545 6.495 3 7 C0 2.25 0 2.25 0 0 Z " fill="#E96C42" transform="translate(286,239)"/>
<path d="M0 0 C0.33 0 0.66 0 1 0 C1.06058594 0.88042969 1.12117188 1.76085937 1.18359375 2.66796875 C1.26738281 3.82941406 1.35117187 4.99085938 1.4375 6.1875 C1.51871094 7.33605469 1.59992188 8.48460937 1.68359375 9.66796875 C1.95403812 12.51598171 2.37521747 15.21210482 3 18 C2.34 18 1.68 18 1 18 C-0.2062252 14.38132441 -0.10816918 11.07493749 -0.0625 7.3125 C-0.05798828 6.61060547 -0.05347656 5.90871094 -0.04882812 5.18554688 C-0.03706927 3.45699462 -0.01913454 1.72848635 0 0 Z " fill="#C1965D" transform="translate(313,192)"/>
<path d="M0 0 C3.36720387 1.39332574 4.9859524 2.9789286 7 6 C6.01 6.495 6.01 6.495 5 7 C5 6.34 5 5.68 5 5 C4.01 5.33 3.02 5.66 2 6 C1.01 4.68 0.02 3.36 -1 2 C-0.67 1.34 -0.34 0.68 0 0 Z " fill="#28A4C9" transform="translate(255,148)"/>
<path d="M0 0 C0.99 0.99 1.98 1.98 3 3 C2.6875 6.1875 2.6875 6.1875 2 9 C1.01 9 0.02 9 -1 9 C-0.67 6.03 -0.34 3.06 0 0 Z " fill="#E4752E" transform="translate(332,123)"/>
<path d="M0 0 C2.4375 0.75 2.4375 0.75 5 2 C5.8125 4.125 5.8125 4.125 6 6 C3.08482708 4.92598892 1.22189824 4.22189824 -1 2 C-0.67 1.34 -0.34 0.68 0 0 Z " fill="#1C2F44" transform="translate(373,78)"/>
<path d="M0 0 C0.66 0.33 1.32 0.66 2 1 C1.67 1.99 1.34 2.98 1 4 C-1.5625 5.1875 -1.5625 5.1875 -4 6 C-4.66 5.34 -5.32 4.68 -6 4 C-4.02 2.68 -2.04 1.36 0 0 Z " fill="#162838" transform="translate(224,54)"/>
<path d="M0 0 C0.99 0.33 1.98 0.66 3 1 C2.34 1.66 1.68 2.32 1 3 C1 3.99 1 4.98 1 6 C0.01 6.495 0.01 6.495 -1 7 C-1.66 6.34 -2.32 5.68 -3 5 C-2.01 3.35 -1.02 1.7 0 0 Z " fill="#3D93C5" transform="translate(203,226)"/>
<path d="M0 0 C-0.33 1.32 -0.66 2.64 -1 4 C-2.65 4.33 -4.3 4.66 -6 5 C-6 4.34 -6 3.68 -6 3 C-6.66 2.67 -7.32 2.34 -8 2 C-2.25 0 -2.25 0 0 0 Z " fill="#F76B30" transform="translate(136,209)"/>
<path d="M0 0 C0 3 0 3 -1.25 4.75 C-3 6 -3 6 -5.1875 5.6875 C-5.785625 5.460625 -6.38375 5.23375 -7 5 C-4.63707344 2.47411298 -3.33537489 1.11179163 0 0 Z " fill="#2AA943" transform="translate(334,149)"/>
<path d="M0 0 C0.598125 0.20625 1.19625 0.4125 1.8125 0.625 C0 2.625 0 2.625 -2.1875 4.625 C-3.1775 4.625 -4.1675 4.625 -5.1875 4.625 C-5.1875 3.635 -5.1875 2.645 -5.1875 1.625 C-2.1875 -0.375 -2.1875 -0.375 0 0 Z " fill="#ED632F" transform="translate(274.1875,86.375)"/>
<path d="M0 0 C0.99 0.33 1.98 0.66 3 1 C3.6875 3.0625 3.6875 3.0625 4 5 C3.01 5.33 2.02 5.66 1 6 C0.01 4.35 -0.98 2.7 -2 1 C-1.34 0.67 -0.68 0.34 0 0 Z " fill="#EB592A" transform="translate(184,227)"/>
<path d="M0 0 C-1.28524261 0.86380259 -2.57842419 1.71580369 -3.875 2.5625 C-4.59429687 3.03816406 -5.31359375 3.51382813 -6.0546875 4.00390625 C-6.69664062 4.33261719 -7.33859375 4.66132812 -8 5 C-8.66 4.67 -9.32 4.34 -10 4 C-4.4 -2.2 -4.4 -2.2 0 0 Z " fill="#182C3D" transform="translate(253,41)"/>
<path d="M0 0 C1.70884005 1.62339805 3.37446717 3.29319053 5 5 C5 5.66 5 6.32 5 7 C1.83884224 5.63016497 1.0072908 5.0109362 -1 2 C-0.67 1.34 -0.34 0.68 0 0 Z " fill="#328C56" transform="translate(427,154)"/>
<path d="M0 0 C0.99 0.33 1.98 0.66 3 1 C4.1875 4.0625 4.1875 4.0625 5 7 C3.0625 6.3125 3.0625 6.3125 1 5 C0.25 2.375 0.25 2.375 0 0 Z " fill="#EB7751" transform="translate(275,242)"/>
<path d="M0 0 C0.66 0.99 1.32 1.98 2 3 C0.02 4.32 -1.96 5.64 -4 7 C-3.43628586 3.73045798 -2.50037734 2.17424117 0 0 Z " fill="#2F8759" transform="translate(372,237)"/>
<path d="M0 0 C3.16115776 1.36983503 3.9927092 1.9890638 6 5 C5.34 5.66 4.68 6.32 4 7 C0 2.25 0 2.25 0 0 Z " fill="#F69329" transform="translate(467,216)"/>
<path d="M0 0 C0.99 0 1.98 0 3 0 C2.34 1.98 1.68 3.96 1 6 C0.01 5.67 -0.98 5.34 -2 5 C-1.34 3.35 -0.68 1.7 0 0 Z " fill="#2B83B8" transform="translate(191,179)"/>
<path d="M0 0 C2.64 0 5.28 0 8 0 C7.01 0.33 6.02 0.66 5 1 C5 1.66 5 2.32 5 3 C3.35 3 1.7 3 0 3 C0 2.01 0 1.02 0 0 Z " fill="#1E2D40" transform="translate(292,15)"/>
<path d="M0 0 C2.0625 0.4375 2.0625 0.4375 4 1 C2.35 2.65 0.7 4.3 -1 6 C-1.042721 4.33388095 -1.04063832 2.66617115 -1 1 C-0.67 0.67 -0.34 0.34 0 0 Z " fill="#439CC7" transform="translate(160,155)"/>
<path d="M0 0 C0.66 0 1.32 0 2 0 C2.6875 2.25 2.6875 2.25 3 5 C1.5625 7.3125 1.5625 7.3125 0 9 C-0.87890625 2.84765625 -0.87890625 2.84765625 -1 1 C-0.67 0.67 -0.34 0.34 0 0 Z " fill="#F3762A" transform="translate(332,107)"/>
<path d="M0 0 C0.33 0 0.66 0 1 0 C1.125 2.875 1.125 2.875 1 6 C0.34 6.66 -0.32 7.32 -1 8 C-1.66 7.34 -2.32 6.68 -3 6 C-2.01 4.02 -1.02 2.04 0 0 Z " fill="#F2784C" transform="translate(257,105)"/>
<path d="M0 0 C0.66 0.33 1.32 0.66 2 1 C0.35 2.65 -1.3 4.3 -3 6 C-3.66 5.67 -4.32 5.34 -5 5 C-5 4.34 -5 3.68 -5 3 C-2.625 1.3125 -2.625 1.3125 0 0 Z " fill="#3C495A" transform="translate(213,61)"/>
<path d="M0 0 C0.99 0.33 1.98 0.66 3 1 C3 1.66 3 2.32 3 3 C0.69 3.33 -1.62 3.66 -4 4 C-3.34 3.67 -2.68 3.34 -2 3 C-2 2.34 -2 1.68 -2 1 C-1.34 0.67 -0.68 0.34 0 0 Z " fill="#16253C" transform="translate(257,52)"/>
<path d="M0 0 C3.28212246 0.43761633 4.84832931 1.52557871 7 4 C1.25 3.25 1.25 3.25 -1 1 C-0.67 0.67 -0.34 0.34 0 0 Z " fill="#142736" transform="translate(325,50)"/>
</svg>
